<mxfile host="app.diagrams.net" modified="2020-05-31T18:06:04.464Z" agent="5.0 (Windows)" etag="cS6IaCVmudKVohELiiUG" version="13.1.11" type="github" pages="5">
  <diagram name="REG_SPAJ" id="13e1069c-82ec-6db2-03f1-153e76fe0fe0">
    <mxGraphModel dx="782" dy="404" grid="1" gridSize="10" guides="1" tooltips="1" connect="1" arrows="1" fold="1" page="1" pageScale="1" pageWidth="1100" pageHeight="850" background="#ffffff" math="0" shadow="0">
      <root>
        <mxCell id="0" />
        <mxCell id="1" parent="0" />
        <mxCell id="7baba1c4bc27f4b0-2" value="&lt;div&gt;:Register&lt;/div&gt;&lt;div&gt;Invitation&lt;br&gt;&lt;/div&gt;" style="shape=umlLifeline;perimeter=lifelinePerimeter;whiteSpace=wrap;html=1;container=1;collapsible=0;recursiveResize=0;outlineConnect=0;rounded=1;shadow=0;comic=0;labelBackgroundColor=none;strokeWidth=1;fontFamily=Verdana;fontSize=12;align=center;fillColor=#fad7ac;strokeColor=#b46504;" parent="1" vertex="1">
          <mxGeometry x="480" y="100" width="100" height="510" as="geometry" />
        </mxCell>
        <mxCell id="p4iOBF_PORQU9EkBIIjE-11" value="" style="html=1;points=[];perimeter=orthogonalPerimeter;rounded=0;shadow=0;comic=0;labelBackgroundColor=none;strokeWidth=1;fontFamily=Verdana;fontSize=12;align=center;fillColor=#f0a30a;strokeColor=#BD7000;fontColor=#ffffff;" parent="7baba1c4bc27f4b0-2" vertex="1">
          <mxGeometry x="43" y="210" width="15" height="270" as="geometry" />
        </mxCell>
        <mxCell id="6RbhNzcq1OYKgwnGAaoQ-3" value="" style="html=1;points=[];perimeter=orthogonalPerimeter;fillColor=#ffcc99;strokeColor=#36393d;" parent="7baba1c4bc27f4b0-2" vertex="1">
          <mxGeometry x="58" y="285" width="10" height="40" as="geometry" />
        </mxCell>
        <mxCell id="6RbhNzcq1OYKgwnGAaoQ-4" value="&lt;div&gt;Customer Email/Phone#,&lt;/div&gt;&lt;div&gt;Upload illustration&lt;br&gt;&lt;/div&gt;" style="edgeStyle=orthogonalEdgeStyle;html=1;align=left;spacingLeft=2;endArrow=block;rounded=0;entryX=1;entryY=0;" parent="7baba1c4bc27f4b0-2" target="6RbhNzcq1OYKgwnGAaoQ-3" edge="1">
          <mxGeometry relative="1" as="geometry">
            <mxPoint x="60" y="240" as="sourcePoint" />
            <Array as="points">
              <mxPoint x="63" y="240" />
              <mxPoint x="88" y="240" />
              <mxPoint x="88" y="285" />
            </Array>
          </mxGeometry>
        </mxCell>
        <mxCell id="7baba1c4bc27f4b0-3" value=":NOTIFICATION" style="shape=umlLifeline;perimeter=lifelinePerimeter;whiteSpace=wrap;html=1;container=1;collapsible=0;recursiveResize=0;outlineConnect=0;rounded=1;shadow=0;comic=0;labelBackgroundColor=none;strokeWidth=1;fontFamily=Verdana;fontSize=12;align=center;fillColor=#fad7ac;strokeColor=#b46504;" parent="1" vertex="1">
          <mxGeometry x="690" y="100" width="100" height="510" as="geometry" />
        </mxCell>
        <mxCell id="p4iOBF_PORQU9EkBIIjE-16" value="" style="html=1;points=[];perimeter=orthogonalPerimeter;rounded=0;shadow=0;comic=0;labelBackgroundColor=none;strokeWidth=1;fontFamily=Verdana;fontSize=12;align=center;fillColor=#f0a30a;strokeColor=#BD7000;fontColor=#ffffff;" parent="7baba1c4bc27f4b0-3" vertex="1">
          <mxGeometry x="45" y="372" width="10" height="52" as="geometry" />
        </mxCell>
        <mxCell id="7baba1c4bc27f4b0-8" value=":LOGIN" style="shape=umlLifeline;perimeter=lifelinePerimeter;whiteSpace=wrap;html=1;container=1;collapsible=0;recursiveResize=0;outlineConnect=0;rounded=1;shadow=0;comic=0;labelBackgroundColor=none;strokeWidth=1;fontFamily=Verdana;fontSize=12;align=center;fillColor=#fad7ac;strokeColor=#b46504;" parent="1" vertex="1">
          <mxGeometry x="260" y="100" width="100" height="510" as="geometry" />
        </mxCell>
        <mxCell id="7baba1c4bc27f4b0-9" value="" style="html=1;points=[];perimeter=orthogonalPerimeter;rounded=0;shadow=0;comic=0;labelBackgroundColor=none;strokeWidth=1;fontFamily=Verdana;fontSize=12;align=center;fillColor=#f0a30a;strokeColor=#BD7000;fontColor=#ffffff;" parent="7baba1c4bc27f4b0-8" vertex="1">
          <mxGeometry x="43" y="100" width="15" height="190" as="geometry" />
        </mxCell>
        <mxCell id="6RbhNzcq1OYKgwnGAaoQ-5" value="" style="html=1;points=[];perimeter=orthogonalPerimeter;fillColor=#ffcc99;strokeColor=#36393d;" parent="7baba1c4bc27f4b0-8" vertex="1">
          <mxGeometry x="58" y="180" width="10" height="40" as="geometry" />
        </mxCell>
        <mxCell id="6RbhNzcq1OYKgwnGAaoQ-6" value="Validate" style="edgeStyle=orthogonalEdgeStyle;html=1;align=left;spacingLeft=2;endArrow=block;rounded=0;entryX=1;entryY=0;" parent="7baba1c4bc27f4b0-8" target="6RbhNzcq1OYKgwnGAaoQ-5" edge="1">
          <mxGeometry relative="1" as="geometry">
            <mxPoint x="63" y="140" as="sourcePoint" />
            <Array as="points">
              <mxPoint x="88" y="140" />
            </Array>
          </mxGeometry>
        </mxCell>
        <mxCell id="p4iOBF_PORQU9EkBIIjE-3" value="&lt;div&gt;UserId&lt;/div&gt;&lt;div&gt;, Password()&lt;/div&gt;" style="edgeStyle=orthogonalEdgeStyle;rounded=0;orthogonalLoop=1;jettySize=auto;html=1;" parent="1" source="p4iOBF_PORQU9EkBIIjE-1" edge="1">
          <mxGeometry relative="1" as="geometry">
            <mxPoint x="300" y="220" as="targetPoint" />
          </mxGeometry>
        </mxCell>
        <mxCell id="XKrE97l7b6FqeRw9MG-Z-1" style="edgeStyle=orthogonalEdgeStyle;rounded=0;orthogonalLoop=1;jettySize=auto;html=1;strokeColor=#36393d;endArrow=none;endFill=0;startArrow=none;startFill=0;dashed=1;fillColor=#ffcc99;" parent="1" source="p4iOBF_PORQU9EkBIIjE-1" edge="1">
          <mxGeometry relative="1" as="geometry">
            <mxPoint x="145" y="610" as="targetPoint" />
          </mxGeometry>
        </mxCell>
        <mxCell id="p4iOBF_PORQU9EkBIIjE-1" value="AGENT" style="shape=umlActor;verticalLabelPosition=bottom;labelBackgroundColor=#ffffff;verticalAlign=top;html=1;outlineConnect=0;fillColor=#ffcd28;strokeColor=#d79b00;gradientColor=#ffa500;" parent="1" vertex="1">
          <mxGeometry x="130" y="190" width="30" height="60" as="geometry" />
        </mxCell>
        <mxCell id="p4iOBF_PORQU9EkBIIjE-12" value="openSPAJRegisterForm()" style="edgeStyle=orthogonalEdgeStyle;rounded=0;orthogonalLoop=1;jettySize=auto;html=1;" parent="1" source="7baba1c4bc27f4b0-9" target="p4iOBF_PORQU9EkBIIjE-11" edge="1">
          <mxGeometry relative="1" as="geometry">
            <Array as="points">
              <mxPoint x="480" y="330" />
              <mxPoint x="480" y="330" />
            </Array>
          </mxGeometry>
        </mxCell>
        <mxCell id="p4iOBF_PORQU9EkBIIjE-17" value="&lt;div&gt;Notify&lt;/div&gt;&lt;div&gt;SPAJ#, AgentId, &lt;br&gt;&lt;/div&gt;&lt;div&gt;Email, Illustration, formLink&lt;br&gt;&lt;/div&gt;" style="edgeStyle=elbowEdgeStyle;rounded=0;orthogonalLoop=1;jettySize=auto;html=1;entryX=0.029;entryY=0.149;entryDx=0;entryDy=0;entryPerimeter=0;" parent="1" source="p4iOBF_PORQU9EkBIIjE-11" target="p4iOBF_PORQU9EkBIIjE-16" edge="1">
          <mxGeometry relative="1" as="geometry">
            <Array as="points">
              <mxPoint x="540" y="480" />
              <mxPoint x="560" y="480" />
            </Array>
          </mxGeometry>
        </mxCell>
        <mxCell id="XKrE97l7b6FqeRw9MG-Z-5" value="Return" style="edgeStyle=elbowEdgeStyle;rounded=0;orthogonalLoop=1;jettySize=auto;html=1;dashed=1;" parent="1" source="p4iOBF_PORQU9EkBIIjE-11" edge="1">
          <mxGeometry relative="1" as="geometry">
            <Array as="points">
              <mxPoint x="510" y="540" />
              <mxPoint x="540" y="480" />
              <mxPoint x="560" y="480" />
            </Array>
            <mxPoint x="538" y="480" as="sourcePoint" />
            <mxPoint x="150" y="540" as="targetPoint" />
          </mxGeometry>
        </mxCell>
      </root>
    </mxGraphModel>
  </diagram>
  <diagram name="FORM_FILL" id="ZUSo_tYz1-H3Pd76nH2e">
    <mxGraphModel dx="782" dy="404" grid="1" gridSize="10" guides="1" tooltips="1" connect="1" arrows="1" fold="1" page="1" pageScale="1" pageWidth="1100" pageHeight="850" background="#ffffff" math="0" shadow="0">
      <root>
        <mxCell id="34XvzV34zaWwnX6Qg1qv-0" />
        <mxCell id="34XvzV34zaWwnX6Qg1qv-1" parent="34XvzV34zaWwnX6Qg1qv-0" />
        <mxCell id="TpwDVJLlCeHOMeEjPjHi-5" value="Loop Identity" style="shape=umlFrame;whiteSpace=wrap;html=1;fillColor=#dae8fc;strokeColor=#6c8ebf;shadow=0;comic=0;swimlaneFillColor=#D5E8D4;" vertex="1" parent="34XvzV34zaWwnX6Qg1qv-1">
          <mxGeometry x="180" y="494" width="400" height="156" as="geometry" />
        </mxCell>
        <mxCell id="34XvzV34zaWwnX6Qg1qv-2" value="FILL SPAJ" style="shape=umlLifeline;perimeter=lifelinePerimeter;whiteSpace=wrap;html=1;container=1;collapsible=0;recursiveResize=0;outlineConnect=0;rounded=1;shadow=0;comic=0;labelBackgroundColor=none;strokeWidth=1;fontFamily=Verdana;fontSize=12;align=center;fillColor=#ffcc99;strokeColor=#36393d;" parent="34XvzV34zaWwnX6Qg1qv-1" vertex="1">
          <mxGeometry x="240" y="110" width="130" height="960" as="geometry" />
        </mxCell>
        <mxCell id="34XvzV34zaWwnX6Qg1qv-3" value="" style="html=1;points=[];perimeter=orthogonalPerimeter;rounded=0;shadow=0;comic=0;labelBackgroundColor=none;strokeWidth=1;fontFamily=Verdana;fontSize=12;align=center;fillColor=#f0a30a;strokeColor=#BD7000;fontColor=#ffffff;" parent="34XvzV34zaWwnX6Qg1qv-2" vertex="1">
          <mxGeometry x="57" y="55" width="15" height="875" as="geometry" />
        </mxCell>
        <mxCell id="Yct9ikVkDQhymuxmqOAk-6" value="" style="html=1;points=[];perimeter=orthogonalPerimeter;fillColor=#ffcc99;strokeColor=#36393d;" parent="34XvzV34zaWwnX6Qg1qv-2" vertex="1">
          <mxGeometry x="65" y="297" width="16" height="31" as="geometry" />
        </mxCell>
        <mxCell id="Yct9ikVkDQhymuxmqOAk-7" value="&lt;div&gt;FILL SPAJ FORM&lt;/div&gt;&lt;div&gt;&lt;br&gt;&lt;/div&gt;" style="edgeStyle=orthogonalEdgeStyle;html=1;align=left;spacingLeft=2;endArrow=block;rounded=0;entryX=1;entryY=0;" parent="34XvzV34zaWwnX6Qg1qv-2" target="Yct9ikVkDQhymuxmqOAk-6" edge="1">
          <mxGeometry relative="1" as="geometry">
            <mxPoint x="73" y="268" as="sourcePoint" />
            <Array as="points">
              <mxPoint x="73" y="268" />
              <mxPoint x="130" y="268" />
              <mxPoint x="130" y="297" />
            </Array>
          </mxGeometry>
        </mxCell>
        <mxCell id="P-fuDSxvps38Yb6KJF_F-21" value="Saving SPAJ" style="shape=umlFrame;whiteSpace=wrap;html=1;" parent="34XvzV34zaWwnX6Qg1qv-1" vertex="1">
          <mxGeometry x="130" y="453" width="480" height="517" as="geometry" />
        </mxCell>
        <mxCell id="P-fuDSxvps38Yb6KJF_F-0" value="SPAJ DATA" style="shape=umlLifeline;perimeter=lifelinePerimeter;whiteSpace=wrap;html=1;container=1;collapsible=0;recursiveResize=0;outlineConnect=0;rounded=1;shadow=0;comic=0;labelBackgroundColor=none;strokeWidth=1;fontFamily=Verdana;fontSize=12;align=center;fillColor=#ffcc99;strokeColor=#36393d;" parent="34XvzV34zaWwnX6Qg1qv-1" vertex="1">
          <mxGeometry x="440" y="110" width="166" height="950" as="geometry" />
        </mxCell>
        <mxCell id="P-fuDSxvps38Yb6KJF_F-1" value="" style="html=1;points=[];perimeter=orthogonalPerimeter;rounded=0;shadow=0;comic=0;labelBackgroundColor=none;strokeWidth=1;fontFamily=Verdana;fontSize=12;align=center;fillColor=#f0a30a;strokeColor=#BD7000;fontColor=#ffffff;" parent="P-fuDSxvps38Yb6KJF_F-0" vertex="1">
          <mxGeometry x="75.5" y="83" width="15" height="40" as="geometry" />
        </mxCell>
        <mxCell id="JrqKGCh1Ek70zQKyslGP-3" value="[ELSE SAVE DRAFT" style="text;html=1;strokeColor=none;fillColor=none;align=left;verticalAlign=middle;whiteSpace=wrap;rounded=0;" parent="P-fuDSxvps38Yb6KJF_F-0" vertex="1">
          <mxGeometry x="-126.5" y="690" width="149" height="20" as="geometry" />
        </mxCell>
        <mxCell id="JrqKGCh1Ek70zQKyslGP-5" value="Save SPAJ" style="edgeStyle=none;rounded=0;orthogonalLoop=1;jettySize=auto;html=1;startArrow=none;startFill=0;endArrow=classic;endFill=1;strokeColor=#000000;" parent="P-fuDSxvps38Yb6KJF_F-0" edge="1">
          <mxGeometry relative="1" as="geometry">
            <Array as="points" />
            <mxPoint x="-125.5" y="730" as="sourcePoint" />
            <mxPoint x="75.5" y="730" as="targetPoint" />
          </mxGeometry>
        </mxCell>
        <mxCell id="JrqKGCh1Ek70zQKyslGP-7" value="Return" style="edgeStyle=orthogonalEdgeStyle;rounded=0;orthogonalLoop=1;jettySize=auto;html=1;dashed=1;startArrow=none;startFill=0;endArrow=classic;endFill=1;strokeColor=#000000;" parent="P-fuDSxvps38Yb6KJF_F-0" edge="1">
          <mxGeometry relative="1" as="geometry">
            <mxPoint x="73.06999999999994" y="769.46" as="sourcePoint" />
            <mxPoint x="-132.5" y="769" as="targetPoint" />
            <Array as="points">
              <mxPoint x="22.069999999999993" y="769.46" />
            </Array>
          </mxGeometry>
        </mxCell>
        <mxCell id="JrqKGCh1Ek70zQKyslGP-4" value="" style="html=1;points=[];perimeter=orthogonalPerimeter;rounded=0;shadow=0;comic=0;labelBackgroundColor=none;strokeWidth=1;fontFamily=Verdana;fontSize=12;align=center;fillColor=#f0a30a;strokeColor=#BD7000;fontColor=#ffffff;" parent="P-fuDSxvps38Yb6KJF_F-0" vertex="1">
          <mxGeometry x="75.5" y="719" width="15" height="50" as="geometry" />
        </mxCell>
        <mxCell id="P-fuDSxvps38Yb6KJF_F-29" value="Save SPAJ" style="edgeStyle=none;rounded=0;orthogonalLoop=1;jettySize=auto;html=1;startArrow=none;startFill=0;endArrow=classic;endFill=1;strokeColor=#000000;" parent="P-fuDSxvps38Yb6KJF_F-0" edge="1">
          <mxGeometry relative="1" as="geometry">
            <Array as="points" />
            <mxPoint x="-125.5" y="487" as="sourcePoint" />
            <mxPoint x="75.5" y="487" as="targetPoint" />
          </mxGeometry>
        </mxCell>
        <mxCell id="JrqKGCh1Ek70zQKyslGP-1" value="Return" style="edgeStyle=orthogonalEdgeStyle;rounded=0;orthogonalLoop=1;jettySize=auto;html=1;dashed=1;startArrow=none;startFill=0;endArrow=classic;endFill=1;strokeColor=#000000;exitX=0.093;exitY=0.912;exitDx=0;exitDy=0;exitPerimeter=0;" parent="P-fuDSxvps38Yb6KJF_F-0" edge="1" source="P-fuDSxvps38Yb6KJF_F-28">
          <mxGeometry relative="1" as="geometry">
            <mxPoint x="73.06999999999994" y="521.46" as="sourcePoint" />
            <mxPoint x="-130" y="521" as="targetPoint" />
            <Array as="points">
              <mxPoint x="22" y="522" />
            </Array>
          </mxGeometry>
        </mxCell>
        <mxCell id="P-fuDSxvps38Yb6KJF_F-28" value="" style="html=1;points=[];perimeter=orthogonalPerimeter;rounded=0;shadow=0;comic=0;labelBackgroundColor=none;strokeWidth=1;fontFamily=Verdana;fontSize=12;align=center;fillColor=#f0a30a;strokeColor=#BD7000;fontColor=#ffffff;" parent="P-fuDSxvps38Yb6KJF_F-0" vertex="1">
          <mxGeometry x="75.5" y="476" width="15" height="50" as="geometry" />
        </mxCell>
        <mxCell id="34XvzV34zaWwnX6Qg1qv-10" value="openFormLink()" style="edgeStyle=orthogonalEdgeStyle;rounded=0;orthogonalLoop=1;jettySize=auto;html=1;exitX=1.1;exitY=0.042;exitDx=0;exitDy=0;exitPerimeter=0;" parent="34XvzV34zaWwnX6Qg1qv-1" edge="1">
          <mxGeometry relative="1" as="geometry">
            <mxPoint x="300" y="173" as="targetPoint" />
            <mxPoint x="70.00000000000023" y="184.5" as="sourcePoint" />
            <Array as="points">
              <mxPoint x="70" y="173" />
            </Array>
          </mxGeometry>
        </mxCell>
        <mxCell id="__p8f2sT7H5Wwx9RNx_r-0" value="Customer" style="shape=umlLifeline;participant=umlActor;perimeter=lifelinePerimeter;whiteSpace=wrap;html=1;container=1;collapsible=0;recursiveResize=0;verticalAlign=top;spacingTop=36;labelBackgroundColor=#ffffff;outlineConnect=0;fillColor=#ffcd28;strokeColor=#d79b00;gradientColor=#ffa500;" parent="34XvzV34zaWwnX6Qg1qv-1" vertex="1">
          <mxGeometry x="37" y="160" width="30" height="900" as="geometry" />
        </mxCell>
        <mxCell id="K-Zi6zfFVvJOgH8rUau1-10" value="NOTIFICATION" style="shape=umlLifeline;perimeter=lifelinePerimeter;whiteSpace=wrap;html=1;container=1;collapsible=0;recursiveResize=0;outlineConnect=0;rounded=1;shadow=0;comic=0;labelBackgroundColor=none;strokeWidth=1;fontFamily=Verdana;fontSize=12;align=center;fillColor=#ffcc99;strokeColor=#36393d;" parent="34XvzV34zaWwnX6Qg1qv-1" vertex="1">
          <mxGeometry x="660" y="109" width="100" height="951" as="geometry" />
        </mxCell>
        <mxCell id="K-Zi6zfFVvJOgH8rUau1-28" value="" style="html=1;points=[];perimeter=orthogonalPerimeter;rounded=0;shadow=0;comic=0;labelBackgroundColor=none;strokeWidth=1;fontFamily=Verdana;fontSize=12;align=center;fillColor=#f0a30a;strokeColor=#BD7000;fontColor=#ffffff;" parent="K-Zi6zfFVvJOgH8rUau1-10" vertex="1">
          <mxGeometry x="42.5" y="620" width="15" height="49" as="geometry" />
        </mxCell>
        <mxCell id="JrqKGCh1Ek70zQKyslGP-9" value="" style="html=1;points=[];perimeter=orthogonalPerimeter;rounded=0;shadow=0;comic=0;labelBackgroundColor=none;strokeWidth=1;fontFamily=Verdana;fontSize=12;align=center;fillColor=#f0a30a;strokeColor=#BD7000;fontColor=#ffffff;" parent="K-Zi6zfFVvJOgH8rUau1-10" vertex="1">
          <mxGeometry x="42.5" y="801" width="15" height="39" as="geometry" />
        </mxCell>
        <mxCell id="cqkEMLhygJxoxr0-Wib4-16" value="" style="html=1;points=[];perimeter=orthogonalPerimeter;rounded=0;shadow=0;comic=0;labelBackgroundColor=none;strokeWidth=1;fontFamily=Verdana;fontSize=12;align=center;fillColor=#f0a30a;strokeColor=#BD7000;fontColor=#ffffff;" vertex="1" parent="K-Zi6zfFVvJOgH8rUau1-10">
          <mxGeometry x="42.5" y="488" width="15" height="32" as="geometry" />
        </mxCell>
        <mxCell id="P-fuDSxvps38Yb6KJF_F-5" value="getExistingData()" style="edgeStyle=orthogonalEdgeStyle;rounded=0;orthogonalLoop=1;jettySize=auto;html=1;exitX=1.1;exitY=0.042;exitDx=0;exitDy=0;exitPerimeter=0;" parent="34XvzV34zaWwnX6Qg1qv-1" edge="1">
          <mxGeometry relative="1" as="geometry">
            <mxPoint x="510" y="193" as="targetPoint" />
            <mxPoint x="310" y="193.15999999999997" as="sourcePoint" />
            <Array as="points">
              <mxPoint x="310" y="193" />
            </Array>
          </mxGeometry>
        </mxCell>
        <mxCell id="P-fuDSxvps38Yb6KJF_F-6" value="existing data" style="edgeStyle=orthogonalEdgeStyle;rounded=0;orthogonalLoop=1;jettySize=auto;html=1;dashed=1;startArrow=none;startFill=0;endArrow=classic;endFill=1;strokeColor=#000000;exitX=-0.056;exitY=0.861;exitDx=0;exitDy=0;exitPerimeter=0;" parent="34XvzV34zaWwnX6Qg1qv-1" edge="1" source="P-fuDSxvps38Yb6KJF_F-1">
          <mxGeometry relative="1" as="geometry">
            <mxPoint x="510" y="228" as="sourcePoint" />
            <mxPoint x="303" y="228" as="targetPoint" />
            <Array as="points">
              <mxPoint x="521" y="227" />
            </Array>
          </mxGeometry>
        </mxCell>
        <mxCell id="P-fuDSxvps38Yb6KJF_F-13" value="alt" style="shape=umlFrame;whiteSpace=wrap;html=1;" parent="34XvzV34zaWwnX6Qg1qv-1" vertex="1">
          <mxGeometry x="266" y="243" width="300" height="120" as="geometry" />
        </mxCell>
        <mxCell id="P-fuDSxvps38Yb6KJF_F-18" value="" style="html=1;points=[];perimeter=orthogonalPerimeter;fillColor=#ffcc99;strokeColor=#36393d;" parent="34XvzV34zaWwnX6Qg1qv-1" vertex="1">
          <mxGeometry x="300" y="318" width="16" height="34" as="geometry" />
        </mxCell>
        <mxCell id="P-fuDSxvps38Yb6KJF_F-19" value="&lt;div&gt;FILL FORM&lt;/div&gt;&lt;div&gt;Wiith Existing Data&lt;br&gt;&lt;/div&gt;" style="edgeStyle=orthogonalEdgeStyle;html=1;align=left;spacingLeft=2;endArrow=block;rounded=0;entryX=1;entryY=0;" parent="34XvzV34zaWwnX6Qg1qv-1" target="P-fuDSxvps38Yb6KJF_F-18" edge="1">
          <mxGeometry relative="1" as="geometry">
            <mxPoint x="308" y="288" as="sourcePoint" />
            <Array as="points">
              <mxPoint x="308" y="288" />
              <mxPoint x="365" y="288" />
              <mxPoint x="365" y="318" />
            </Array>
          </mxGeometry>
        </mxCell>
        <mxCell id="P-fuDSxvps38Yb6KJF_F-22" value="[ExistingData != null]" style="text;html=1;strokeColor=none;fillColor=none;align=left;verticalAlign=middle;whiteSpace=wrap;rounded=0;" parent="34XvzV34zaWwnX6Qg1qv-1" vertex="1">
          <mxGeometry x="338" y="255" width="149" height="20" as="geometry" />
        </mxCell>
        <mxCell id="P-fuDSxvps38Yb6KJF_F-31" value="" style="html=1;points=[];perimeter=orthogonalPerimeter;fillColor=#ffcc99;strokeColor=#36393d;" parent="34XvzV34zaWwnX6Qg1qv-1" vertex="1">
          <mxGeometry x="305" y="407" width="16" height="31" as="geometry" />
        </mxCell>
        <mxCell id="P-fuDSxvps38Yb6KJF_F-32" value="&lt;div&gt;FILL SPAJ FORM&lt;/div&gt;&lt;div&gt;&lt;br&gt;&lt;/div&gt;" style="edgeStyle=orthogonalEdgeStyle;html=1;align=left;spacingLeft=2;endArrow=block;rounded=0;entryX=1;entryY=0;" parent="34XvzV34zaWwnX6Qg1qv-1" target="P-fuDSxvps38Yb6KJF_F-31" edge="1">
          <mxGeometry relative="1" as="geometry">
            <mxPoint x="313" y="378" as="sourcePoint" />
            <Array as="points">
              <mxPoint x="313" y="378" />
              <mxPoint x="370" y="378" />
              <mxPoint x="370" y="407" />
            </Array>
          </mxGeometry>
        </mxCell>
        <mxCell id="P-fuDSxvps38Yb6KJF_F-33" value="" style="html=1;points=[];perimeter=orthogonalPerimeter;fillColor=#ffcc99;strokeColor=#36393d;" parent="34XvzV34zaWwnX6Qg1qv-1" vertex="1">
          <mxGeometry x="305" y="703" width="16" height="42" as="geometry" />
        </mxCell>
        <mxCell id="P-fuDSxvps38Yb6KJF_F-34" value="Generate VA" style="edgeStyle=orthogonalEdgeStyle;html=1;align=left;spacingLeft=2;endArrow=block;rounded=0;entryX=0.961;entryY=0.107;entryDx=0;entryDy=0;entryPerimeter=0;" parent="34XvzV34zaWwnX6Qg1qv-1" target="P-fuDSxvps38Yb6KJF_F-33" edge="1">
          <mxGeometry relative="1" as="geometry">
            <mxPoint x="313" y="679" as="sourcePoint" />
            <Array as="points">
              <mxPoint x="370" y="679" />
              <mxPoint x="370" y="708" />
            </Array>
          </mxGeometry>
        </mxCell>
        <mxCell id="JrqKGCh1Ek70zQKyslGP-0" value="Notify VA" style="edgeStyle=none;rounded=0;orthogonalLoop=1;jettySize=auto;html=1;startArrow=none;startFill=0;endArrow=classic;endFill=1;strokeColor=#000000;entryX=-0.033;entryY=0;entryDx=0;entryDy=0;entryPerimeter=0;" parent="34XvzV34zaWwnX6Qg1qv-1" edge="1">
          <mxGeometry relative="1" as="geometry">
            <Array as="points" />
            <mxPoint x="321" y="737" as="sourcePoint" />
            <mxPoint x="702.0050000000001" y="737" as="targetPoint" />
          </mxGeometry>
        </mxCell>
        <mxCell id="P-fuDSxvps38Yb6KJF_F-17" value="[Save &amp;amp; Submit]" style="text;html=1;strokeColor=none;fillColor=none;align=left;verticalAlign=middle;whiteSpace=wrap;rounded=0;" parent="34XvzV34zaWwnX6Qg1qv-1" vertex="1">
          <mxGeometry x="315" y="463" width="159" height="20" as="geometry" />
        </mxCell>
        <mxCell id="JrqKGCh1Ek70zQKyslGP-2" value="Return" style="edgeStyle=orthogonalEdgeStyle;rounded=0;orthogonalLoop=1;jettySize=auto;html=1;dashed=1;startArrow=none;startFill=0;endArrow=classic;endFill=1;strokeColor=#000000;" parent="34XvzV34zaWwnX6Qg1qv-1" edge="1">
          <mxGeometry relative="1" as="geometry">
            <mxPoint x="705.5699999999999" y="769.46" as="sourcePoint" />
            <mxPoint x="310" y="770" as="targetPoint" />
            <Array as="points">
              <mxPoint x="310" y="770" />
            </Array>
          </mxGeometry>
        </mxCell>
        <mxCell id="JrqKGCh1Ek70zQKyslGP-8" value="Notify Form Link" style="edgeStyle=none;rounded=0;orthogonalLoop=1;jettySize=auto;html=1;startArrow=none;startFill=0;endArrow=classic;endFill=1;strokeColor=#000000;entryX=-0.033;entryY=0;entryDx=0;entryDy=0;entryPerimeter=0;" parent="34XvzV34zaWwnX6Qg1qv-1" target="JrqKGCh1Ek70zQKyslGP-9" edge="1">
          <mxGeometry relative="1" as="geometry">
            <Array as="points" />
            <mxPoint x="310" y="910" as="sourcePoint" />
            <mxPoint x="701.5" y="950" as="targetPoint" />
          </mxGeometry>
        </mxCell>
        <mxCell id="JrqKGCh1Ek70zQKyslGP-10" value="Return" style="edgeStyle=orthogonalEdgeStyle;rounded=0;orthogonalLoop=1;jettySize=auto;html=1;dashed=1;startArrow=none;startFill=0;endArrow=classic;endFill=1;strokeColor=#000000;entryX=0.147;entryY=0.501;entryDx=0;entryDy=0;entryPerimeter=0;" parent="34XvzV34zaWwnX6Qg1qv-1" edge="1">
          <mxGeometry relative="1" as="geometry">
            <mxPoint x="700.4699999999999" y="944.0600000000001" as="sourcePoint" />
            <mxPoint x="304.9999999999999" y="944.0000000000001" as="targetPoint" />
            <Array as="points">
              <mxPoint x="410" y="944" />
              <mxPoint x="410" y="944" />
            </Array>
          </mxGeometry>
        </mxCell>
        <mxCell id="JrqKGCh1Ek70zQKyslGP-11" value="Return" style="edgeStyle=orthogonalEdgeStyle;rounded=0;orthogonalLoop=1;jettySize=auto;html=1;dashed=1;startArrow=none;startFill=0;endArrow=classic;endFill=1;strokeColor=#000000;" parent="34XvzV34zaWwnX6Qg1qv-1" edge="1">
          <mxGeometry relative="1" as="geometry">
            <mxPoint x="299.9999999999998" y="1008.06" as="sourcePoint" />
            <mxPoint x="45.00000000000023" y="1008" as="targetPoint" />
            <Array as="points">
              <mxPoint x="125" y="1008" />
              <mxPoint x="125" y="1008" />
            </Array>
          </mxGeometry>
        </mxCell>
        <mxCell id="cqkEMLhygJxoxr0-Wib4-2" value="DIGITAL IDENTITY" style="shape=umlLifeline;perimeter=lifelinePerimeter;whiteSpace=wrap;html=1;container=1;collapsible=0;recursiveResize=0;outlineConnect=0;rounded=1;shadow=0;comic=0;labelBackgroundColor=none;strokeWidth=1;fontFamily=Verdana;fontSize=12;align=center;fillColor=#ffcc99;strokeColor=#36393d;" vertex="1" parent="34XvzV34zaWwnX6Qg1qv-1">
          <mxGeometry x="830" y="110" width="100" height="951" as="geometry" />
        </mxCell>
        <mxCell id="cqkEMLhygJxoxr0-Wib4-5" value="" style="html=1;points=[];perimeter=orthogonalPerimeter;rounded=0;shadow=0;comic=0;labelBackgroundColor=none;strokeWidth=1;fontFamily=Verdana;fontSize=12;align=center;fillColor=#f0a30a;strokeColor=#BD7000;fontColor=#ffffff;" vertex="1" parent="cqkEMLhygJxoxr0-Wib4-2">
          <mxGeometry x="42.5" y="410" width="15" height="40" as="geometry" />
        </mxCell>
        <mxCell id="cqkEMLhygJxoxr0-Wib4-6" value="Validating Digital Identity" style="edgeStyle=orthogonalEdgeStyle;html=1;align=left;spacingLeft=2;endArrow=block;rounded=0;" edge="1" parent="34XvzV34zaWwnX6Qg1qv-1">
          <mxGeometry relative="1" as="geometry">
            <mxPoint x="888" y="524" as="sourcePoint" />
            <Array as="points">
              <mxPoint x="910" y="524" />
              <mxPoint x="910" y="550" />
              <mxPoint x="888" y="550" />
            </Array>
            <mxPoint x="888" y="550" as="targetPoint" />
          </mxGeometry>
        </mxCell>
        <mxCell id="cqkEMLhygJxoxr0-Wib4-1" value="Register/Validating Digital Identity" style="edgeStyle=none;rounded=0;orthogonalLoop=1;jettySize=auto;html=1;startArrow=none;startFill=0;endArrow=classic;endFill=1;strokeColor=#000000;" edge="1" parent="34XvzV34zaWwnX6Qg1qv-1" target="cqkEMLhygJxoxr0-Wib4-2">
          <mxGeometry relative="1" as="geometry">
            <Array as="points" />
            <mxPoint x="312" y="520" as="sourcePoint" />
            <mxPoint x="513" y="520" as="targetPoint" />
          </mxGeometry>
        </mxCell>
        <mxCell id="cqkEMLhygJxoxr0-Wib4-13" value="Registered and Validated" style="edgeStyle=none;rounded=0;orthogonalLoop=1;jettySize=auto;html=1;startArrow=none;startFill=0;endArrow=classic;endFill=1;strokeColor=#000000;dashed=1;" edge="1" parent="34XvzV34zaWwnX6Qg1qv-1" target="34XvzV34zaWwnX6Qg1qv-3">
          <mxGeometry relative="1" as="geometry">
            <Array as="points" />
            <mxPoint x="873" y="552" as="sourcePoint" />
            <mxPoint x="433" y="552" as="targetPoint" />
          </mxGeometry>
        </mxCell>
        <mxCell id="cqkEMLhygJxoxr0-Wib4-17" value="&lt;div&gt;Notify Next Identity &lt;br&gt;&lt;/div&gt;&lt;div&gt;Validation&lt;/div&gt;" style="edgeStyle=orthogonalEdgeStyle;rounded=0;jumpStyle=none;orthogonalLoop=1;jettySize=auto;html=1;" edge="1" parent="34XvzV34zaWwnX6Qg1qv-1" source="P-fuDSxvps38Yb6KJF_F-28">
          <mxGeometry relative="1" as="geometry">
            <mxPoint x="702" y="600" as="targetPoint" />
            <Array as="points">
              <mxPoint x="702" y="600" />
            </Array>
          </mxGeometry>
        </mxCell>
        <mxCell id="cqkEMLhygJxoxr0-Wib4-18" value="return" style="edgeStyle=orthogonalEdgeStyle;rounded=0;jumpStyle=none;orthogonalLoop=1;jettySize=auto;html=1;exitX=0.033;exitY=0.691;exitDx=0;exitDy=0;exitPerimeter=0;dashed=1;" edge="1" parent="34XvzV34zaWwnX6Qg1qv-1">
          <mxGeometry relative="1" as="geometry">
            <mxPoint x="702.9950000000001" y="623.112" as="sourcePoint" />
            <mxPoint x="533" y="624" as="targetPoint" />
            <Array as="points">
              <mxPoint x="700" y="623" />
            </Array>
          </mxGeometry>
        </mxCell>
        <mxCell id="Bu0KxiiGTXGdS0ix3F2p-0" value="&lt;div&gt;Notify by Email/&lt;/div&gt;&lt;div&gt;WA&lt;br&gt;&lt;/div&gt;" style="edgeStyle=orthogonalEdgeStyle;html=1;align=left;spacingLeft=2;endArrow=block;rounded=0;" edge="1" parent="34XvzV34zaWwnX6Qg1qv-1">
          <mxGeometry relative="1" as="geometry">
            <mxPoint x="720" y="740" as="sourcePoint" />
            <Array as="points">
              <mxPoint x="740" y="740" />
              <mxPoint x="740" y="760" />
            </Array>
            <mxPoint x="720" y="760" as="targetPoint" />
          </mxGeometry>
        </mxCell>
        <mxCell id="Bu0KxiiGTXGdS0ix3F2p-1" value="&lt;div&gt;Notify by Email/&lt;/div&gt;&lt;div&gt;WA&lt;br&gt;&lt;/div&gt;" style="edgeStyle=orthogonalEdgeStyle;html=1;align=left;spacingLeft=2;endArrow=block;rounded=0;" edge="1" parent="34XvzV34zaWwnX6Qg1qv-1">
          <mxGeometry relative="1" as="geometry">
            <mxPoint x="720" y="600" as="sourcePoint" />
            <Array as="points">
              <mxPoint x="740" y="600" />
              <mxPoint x="740" y="620" />
            </Array>
            <mxPoint x="720" y="620" as="targetPoint" />
          </mxGeometry>
        </mxCell>
        <mxCell id="Bu0KxiiGTXGdS0ix3F2p-4" value="&lt;div&gt;Notify by Email/&lt;/div&gt;&lt;div&gt;WA&lt;br&gt;&lt;/div&gt;" style="edgeStyle=orthogonalEdgeStyle;html=1;align=left;spacingLeft=2;endArrow=block;rounded=0;" edge="1" parent="34XvzV34zaWwnX6Qg1qv-1">
          <mxGeometry relative="1" as="geometry">
            <mxPoint x="730" y="927" as="sourcePoint" />
            <Array as="points">
              <mxPoint x="750" y="927" />
              <mxPoint x="750" y="947" />
            </Array>
            <mxPoint x="730" y="947" as="targetPoint" />
          </mxGeometry>
        </mxCell>
        <mxCell id="Bu0KxiiGTXGdS0ix3F2p-5" value="Load Data" style="edgeStyle=orthogonalEdgeStyle;html=1;align=left;spacingLeft=2;endArrow=block;rounded=0;entryX=1.222;entryY=0.688;entryDx=0;entryDy=0;entryPerimeter=0;" edge="1" parent="34XvzV34zaWwnX6Qg1qv-1" target="P-fuDSxvps38Yb6KJF_F-1">
          <mxGeometry relative="1" as="geometry">
            <mxPoint x="530" y="200" as="sourcePoint" />
            <Array as="points">
              <mxPoint x="560" y="200" />
              <mxPoint x="560" y="221" />
              <mxPoint x="534" y="221" />
            </Array>
            <mxPoint x="538" y="230.00000000000034" as="targetPoint" />
          </mxGeometry>
        </mxCell>
      </root>
    </mxGraphModel>
  </diagram>
  <diagram name="FORGOT_FORM_FILL_DRAFT" id="LPV-xi6fbyoAkEOt5cOo">
    <mxGraphModel dx="782" dy="404" grid="1" gridSize="10" guides="1" tooltips="1" connect="1" arrows="1" fold="1" page="1" pageScale="1" pageWidth="1100" pageHeight="850" background="#ffffff" math="0" shadow="0">
      <root>
        <mxCell id="8WxrCFCYr_adakvAWYX0-0" />
        <mxCell id="8WxrCFCYr_adakvAWYX0-1" parent="8WxrCFCYr_adakvAWYX0-0" />
        <mxCell id="8WxrCFCYr_adakvAWYX0-2" value="SPAJ DRAFT MODULE" style="shape=umlLifeline;perimeter=lifelinePerimeter;whiteSpace=wrap;html=1;container=1;collapsible=0;recursiveResize=0;outlineConnect=0;rounded=1;shadow=0;comic=0;labelBackgroundColor=none;strokeWidth=1;fontFamily=Verdana;fontSize=12;align=center;fillColor=#ffcc99;strokeColor=#36393d;" parent="8WxrCFCYr_adakvAWYX0-1" vertex="1">
          <mxGeometry x="240" y="110" width="130" height="470" as="geometry" />
        </mxCell>
        <mxCell id="8WxrCFCYr_adakvAWYX0-3" value="" style="html=1;points=[];perimeter=orthogonalPerimeter;rounded=0;shadow=0;comic=0;labelBackgroundColor=none;strokeWidth=1;fontFamily=Verdana;fontSize=12;align=center;fillColor=#f0a30a;strokeColor=#BD7000;fontColor=#ffffff;" parent="8WxrCFCYr_adakvAWYX0-2" vertex="1">
          <mxGeometry x="57" y="102" width="15" height="328" as="geometry" />
        </mxCell>
        <mxCell id="8WxrCFCYr_adakvAWYX0-4" value="" style="html=1;points=[];perimeter=orthogonalPerimeter;fillColor=#ffcc99;strokeColor=#36393d;" parent="8WxrCFCYr_adakvAWYX0-2" vertex="1">
          <mxGeometry x="65" y="180" width="16" height="50" as="geometry" />
        </mxCell>
        <mxCell id="8WxrCFCYr_adakvAWYX0-5" value="INPUT EMAIL/PHONE" style="edgeStyle=orthogonalEdgeStyle;html=1;align=left;spacingLeft=2;endArrow=block;rounded=0;entryX=1;entryY=0;" parent="8WxrCFCYr_adakvAWYX0-2" target="8WxrCFCYr_adakvAWYX0-4" edge="1">
          <mxGeometry relative="1" as="geometry">
            <mxPoint x="73" y="130" as="sourcePoint" />
            <Array as="points">
              <mxPoint x="130" y="130" />
              <mxPoint x="130" y="180" />
            </Array>
          </mxGeometry>
        </mxCell>
        <mxCell id="8WxrCFCYr_adakvAWYX0-6" value="" style="html=1;points=[];perimeter=orthogonalPerimeter;rounded=0;shadow=0;comic=0;labelBackgroundColor=none;strokeWidth=1;fontFamily=Verdana;fontSize=12;align=center;fillColor=#ffcc99;strokeColor=#36393d;" parent="8WxrCFCYr_adakvAWYX0-2" vertex="1">
          <mxGeometry x="65" y="275" width="15" height="70" as="geometry" />
        </mxCell>
        <mxCell id="8WxrCFCYr_adakvAWYX0-7" value="request Forgot Link" style="edgeStyle=orthogonalEdgeStyle;rounded=0;orthogonalLoop=1;jettySize=auto;html=1;exitX=1.1;exitY=0.042;exitDx=0;exitDy=0;exitPerimeter=0;" parent="8WxrCFCYr_adakvAWYX0-1" source="8WxrCFCYr_adakvAWYX0-8" edge="1">
          <mxGeometry relative="1" as="geometry">
            <mxPoint x="300" y="220" as="targetPoint" />
            <mxPoint x="70" y="234.94117647058818" as="sourcePoint" />
            <Array as="points">
              <mxPoint x="70" y="220" />
            </Array>
          </mxGeometry>
        </mxCell>
        <mxCell id="8WxrCFCYr_adakvAWYX0-8" value="Customer" style="shape=umlLifeline;participant=umlActor;perimeter=lifelinePerimeter;whiteSpace=wrap;html=1;container=1;collapsible=0;recursiveResize=0;verticalAlign=top;spacingTop=36;labelBackgroundColor=#ffffff;outlineConnect=0;fillColor=#ffcd28;strokeColor=#d79b00;gradientColor=#ffa500;" parent="8WxrCFCYr_adakvAWYX0-1" vertex="1">
          <mxGeometry x="37" y="200" width="30" height="380" as="geometry" />
        </mxCell>
        <mxCell id="8WxrCFCYr_adakvAWYX0-9" value="Return" style="edgeStyle=orthogonalEdgeStyle;rounded=0;orthogonalLoop=1;jettySize=auto;html=1;dashed=1;startArrow=none;startFill=0;endArrow=classic;endFill=1;strokeColor=#000000;" parent="8WxrCFCYr_adakvAWYX0-1" edge="1">
          <mxGeometry relative="1" as="geometry">
            <mxPoint x="295.93" y="530" as="sourcePoint" />
            <mxPoint x="50" y="530" as="targetPoint" />
            <Array as="points">
              <mxPoint x="295.93" y="530" />
              <mxPoint x="295.93" y="530" />
            </Array>
          </mxGeometry>
        </mxCell>
        <mxCell id="8WxrCFCYr_adakvAWYX0-10" value="NOTIFICATION" style="shape=umlLifeline;perimeter=lifelinePerimeter;whiteSpace=wrap;html=1;container=1;collapsible=0;recursiveResize=0;outlineConnect=0;rounded=1;shadow=0;comic=0;labelBackgroundColor=none;strokeWidth=1;fontFamily=Verdana;fontSize=12;align=center;fillColor=#ffcc99;strokeColor=#36393d;" parent="8WxrCFCYr_adakvAWYX0-1" vertex="1">
          <mxGeometry x="500" y="110" width="100" height="470" as="geometry" />
        </mxCell>
        <mxCell id="8WxrCFCYr_adakvAWYX0-11" value="" style="html=1;points=[];perimeter=orthogonalPerimeter;rounded=0;shadow=0;comic=0;labelBackgroundColor=none;strokeWidth=1;fontFamily=Verdana;fontSize=12;align=center;fillColor=#ffcc99;strokeColor=#36393d;" parent="8WxrCFCYr_adakvAWYX0-10" vertex="1">
          <mxGeometry x="42.5" y="340" width="15" height="70" as="geometry" />
        </mxCell>
        <mxCell id="8WxrCFCYr_adakvAWYX0-12" value="VALIDATE INPUT" style="edgeStyle=orthogonalEdgeStyle;html=1;align=left;spacingLeft=2;endArrow=block;rounded=0;entryX=1;entryY=0;" parent="8WxrCFCYr_adakvAWYX0-1" edge="1">
          <mxGeometry x="-0.2886" y="-20" relative="1" as="geometry">
            <mxPoint x="320" y="371" as="sourcePoint" />
            <Array as="points">
              <mxPoint x="373" y="371" />
              <mxPoint x="373" y="421" />
            </Array>
            <mxPoint x="327" y="421.0000000000001" as="targetPoint" />
            <mxPoint x="27" y="19" as="offset" />
          </mxGeometry>
        </mxCell>
        <mxCell id="8WxrCFCYr_adakvAWYX0-13" value="&lt;div&gt;Notify FORM LINK&lt;/div&gt;&lt;div&gt;By Email/SMS&lt;br&gt;&lt;/div&gt;" style="edgeStyle=none;rounded=0;orthogonalLoop=1;jettySize=auto;html=1;startArrow=none;startFill=0;endArrow=classic;endFill=1;strokeColor=#000000;" parent="8WxrCFCYr_adakvAWYX0-1" source="8WxrCFCYr_adakvAWYX0-6" target="8WxrCFCYr_adakvAWYX0-11" edge="1">
          <mxGeometry relative="1" as="geometry">
            <Array as="points" />
          </mxGeometry>
        </mxCell>
        <mxCell id="8WxrCFCYr_adakvAWYX0-14" value="Return" style="edgeStyle=orthogonalEdgeStyle;rounded=0;orthogonalLoop=1;jettySize=auto;html=1;dashed=1;startArrow=none;startFill=0;endArrow=classic;endFill=1;strokeColor=#000000;entryX=1.162;entryY=0.903;entryDx=0;entryDy=0;entryPerimeter=0;" parent="8WxrCFCYr_adakvAWYX0-1" target="8WxrCFCYr_adakvAWYX0-3" edge="1">
          <mxGeometry relative="1" as="geometry">
            <mxPoint x="538.9300000000001" y="508.57" as="sourcePoint" />
            <mxPoint x="390" y="640" as="targetPoint" />
            <Array as="points">
              <mxPoint x="370" y="508" />
              <mxPoint x="370" y="508" />
            </Array>
          </mxGeometry>
        </mxCell>
      </root>
    </mxGraphModel>
  </diagram>
  <diagram name="SETTLED" id="CGU4u6baA6YrpRW7Qw8i">
    <mxGraphModel dx="782" dy="404" grid="1" gridSize="10" guides="1" tooltips="1" connect="1" arrows="1" fold="1" page="1" pageScale="1" pageWidth="1100" pageHeight="850" background="#ffffff" math="0" shadow="0">
      <root>
        <mxCell id="JUBmWmNNmW1XvR-8y3h7-0" />
        <mxCell id="JUBmWmNNmW1XvR-8y3h7-1" parent="JUBmWmNNmW1XvR-8y3h7-0" />
        <mxCell id="JUBmWmNNmW1XvR-8y3h7-2" value="&lt;div&gt;PAYMENT&lt;/div&gt;&lt;div&gt;SERVICE&lt;br&gt;&lt;/div&gt;" style="shape=umlLifeline;perimeter=lifelinePerimeter;whiteSpace=wrap;html=1;container=1;collapsible=0;recursiveResize=0;outlineConnect=0;rounded=1;shadow=0;comic=0;labelBackgroundColor=none;strokeWidth=1;fontFamily=Verdana;fontSize=12;align=center;fillColor=#ffcc99;strokeColor=#36393d;" parent="JUBmWmNNmW1XvR-8y3h7-1" vertex="1">
          <mxGeometry x="240" y="110" width="130" height="480" as="geometry" />
        </mxCell>
        <mxCell id="JUBmWmNNmW1XvR-8y3h7-16" value="" style="html=1;points=[];perimeter=orthogonalPerimeter;rounded=0;shadow=0;comic=0;labelBackgroundColor=none;strokeWidth=1;fontFamily=Verdana;fontSize=12;align=center;fillColor=#f0a30a;strokeColor=#BD7000;fontColor=#ffffff;" parent="JUBmWmNNmW1XvR-8y3h7-2" vertex="1">
          <mxGeometry x="57.5" y="80" width="15" height="370" as="geometry" />
        </mxCell>
        <mxCell id="JUBmWmNNmW1XvR-8y3h7-4" value="" style="html=1;points=[];perimeter=orthogonalPerimeter;fillColor=#ffcc99;strokeColor=#36393d;" parent="JUBmWmNNmW1XvR-8y3h7-2" vertex="1">
          <mxGeometry x="65" y="263" width="16" height="50" as="geometry" />
        </mxCell>
        <mxCell id="JUBmWmNNmW1XvR-8y3h7-5" value="Proses Settlement" style="edgeStyle=orthogonalEdgeStyle;html=1;align=left;spacingLeft=2;endArrow=block;rounded=0;entryX=1;entryY=0;" parent="JUBmWmNNmW1XvR-8y3h7-2" target="JUBmWmNNmW1XvR-8y3h7-4" edge="1">
          <mxGeometry relative="1" as="geometry">
            <mxPoint x="73" y="213" as="sourcePoint" />
            <Array as="points">
              <mxPoint x="130" y="213" />
              <mxPoint x="130" y="263" />
            </Array>
          </mxGeometry>
        </mxCell>
        <mxCell id="JoAIE4JgL2bXuAZp9opC-2" value="" style="html=1;points=[];perimeter=orthogonalPerimeter;fillColor=#ffcc99;strokeColor=#36393d;" parent="JUBmWmNNmW1XvR-8y3h7-2" vertex="1">
          <mxGeometry x="65" y="150" width="16" height="50" as="geometry" />
        </mxCell>
        <mxCell id="JoAIE4JgL2bXuAZp9opC-3" value="Validate Incoming Settlement" style="edgeStyle=orthogonalEdgeStyle;html=1;align=left;spacingLeft=2;endArrow=block;rounded=0;entryX=1;entryY=0;" parent="JUBmWmNNmW1XvR-8y3h7-2" source="JUBmWmNNmW1XvR-8y3h7-16" target="JoAIE4JgL2bXuAZp9opC-2" edge="1">
          <mxGeometry relative="1" as="geometry">
            <mxPoint x="313" y="210" as="sourcePoint" />
            <Array as="points">
              <mxPoint x="130" y="120" />
              <mxPoint x="130" y="150" />
            </Array>
          </mxGeometry>
        </mxCell>
        <mxCell id="JUBmWmNNmW1XvR-8y3h7-18" value="NOTIFICATION" style="shape=umlLifeline;perimeter=lifelinePerimeter;whiteSpace=wrap;html=1;container=1;collapsible=0;recursiveResize=0;outlineConnect=0;rounded=1;shadow=0;comic=0;labelBackgroundColor=none;strokeWidth=1;fontFamily=Verdana;fontSize=12;align=center;fillColor=#ffcc99;strokeColor=#36393d;" parent="JUBmWmNNmW1XvR-8y3h7-1" vertex="1">
          <mxGeometry x="510" y="110" width="100" height="480" as="geometry" />
        </mxCell>
        <mxCell id="JUBmWmNNmW1XvR-8y3h7-20" value="" style="html=1;points=[];perimeter=orthogonalPerimeter;rounded=0;shadow=0;comic=0;labelBackgroundColor=none;strokeWidth=1;fontFamily=Verdana;fontSize=12;align=center;fillColor=#f0a30a;strokeColor=#BD7000;fontColor=#ffffff;" parent="JUBmWmNNmW1XvR-8y3h7-18" vertex="1">
          <mxGeometry x="42.5" y="333" width="15" height="70" as="geometry" />
        </mxCell>
        <mxCell id="JUBmWmNNmW1XvR-8y3h7-21" value="Notify Payment Receive to customer" style="edgeStyle=none;rounded=0;orthogonalLoop=1;jettySize=auto;html=1;startArrow=none;startFill=0;endArrow=classic;endFill=1;strokeColor=#000000;" parent="JUBmWmNNmW1XvR-8y3h7-1" target="JUBmWmNNmW1XvR-8y3h7-20" edge="1">
          <mxGeometry relative="1" as="geometry">
            <mxPoint x="312.5" y="443" as="sourcePoint" />
          </mxGeometry>
        </mxCell>
        <mxCell id="x7IjCRDMqcNYyFBwQXJs-1" value="Settlement Notification" style="edgeStyle=none;rounded=0;orthogonalLoop=1;jettySize=auto;html=1;startArrow=none;startFill=0;endArrow=classic;endFill=1;strokeColor=#000000;" parent="JUBmWmNNmW1XvR-8y3h7-1" target="JUBmWmNNmW1XvR-8y3h7-2" edge="1">
          <mxGeometry x="-0.02" y="20" relative="1" as="geometry">
            <mxPoint x="84.5" y="220" as="sourcePoint" />
            <mxPoint x="549.5" y="230" as="targetPoint" />
            <Array as="points">
              <mxPoint x="170" y="220" />
            </Array>
            <mxPoint as="offset" />
          </mxGeometry>
        </mxCell>
        <mxCell id="JoAIE4JgL2bXuAZp9opC-0" value="Return" style="edgeStyle=orthogonalEdgeStyle;rounded=0;orthogonalLoop=1;jettySize=auto;html=1;dashed=1;startArrow=none;startFill=0;endArrow=classic;endFill=1;strokeColor=#000000;" parent="JUBmWmNNmW1XvR-8y3h7-1" edge="1">
          <mxGeometry relative="1" as="geometry">
            <mxPoint x="549.9300000000001" y="493" as="sourcePoint" />
            <mxPoint x="310" y="493" as="targetPoint" />
            <Array as="points">
              <mxPoint x="549.9300000000001" y="493" />
              <mxPoint x="549.9300000000001" y="493" />
            </Array>
          </mxGeometry>
        </mxCell>
        <mxCell id="JoAIE4JgL2bXuAZp9opC-1" value="Return" style="edgeStyle=orthogonalEdgeStyle;rounded=0;orthogonalLoop=1;jettySize=auto;html=1;dashed=1;startArrow=none;startFill=0;endArrow=classic;endFill=1;strokeColor=#000000;" parent="JUBmWmNNmW1XvR-8y3h7-1" edge="1">
          <mxGeometry relative="1" as="geometry">
            <mxPoint x="295.93000000000006" y="523" as="sourcePoint" />
            <mxPoint x="80" y="523" as="targetPoint" />
            <Array as="points">
              <mxPoint x="295.93" y="523" />
              <mxPoint x="295.93" y="523" />
            </Array>
          </mxGeometry>
        </mxCell>
        <mxCell id="Dh03YXcmAkOEZibeRbsf-0" value="&lt;div&gt;PAYMENT&lt;/div&gt;&lt;div&gt;GATEWAY&lt;br&gt;&lt;/div&gt;" style="shape=umlLifeline;perimeter=lifelinePerimeter;whiteSpace=wrap;html=1;container=1;collapsible=0;recursiveResize=0;outlineConnect=0;rounded=1;shadow=0;comic=0;labelBackgroundColor=none;strokeWidth=1;fontFamily=Verdana;fontSize=12;align=center;fillColor=#ffcc99;strokeColor=#36393d;" parent="JUBmWmNNmW1XvR-8y3h7-1" vertex="1">
          <mxGeometry x="30" y="110" width="100" height="480" as="geometry" />
        </mxCell>
      </root>
    </mxGraphModel>
  </diagram>
  <diagram name="Copy of FORM_FILL" id="1vZY57n6lxygkQWoNbV0">
    
    <mxGraphModel dx="1882" dy="410" grid="1" gridSize="10" guides="1" tooltips="1" connect="1" arrows="1" fold="1" page="1" pageScale="1" pageWidth="1100" pageHeight="850" background="#ffffff" math="0" shadow="0">
      
      <root>
        
        <mxCell id="wwjqNw4YfcpreguJsvVE-0" />
        
        <mxCell id="wwjqNw4YfcpreguJsvVE-1" parent="wwjqNw4YfcpreguJsvVE-0" />
        
        <mxCell id="wwjqNw4YfcpreguJsvVE-7" value="&lt;div&gt;VALIDATE&lt;/div&gt;&lt;div&gt;SPAJ&lt;br&gt;&lt;/div&gt;" style="shape=umlLifeline;perimeter=lifelinePerimeter;whiteSpace=wrap;html=1;container=1;collapsible=0;recursiveResize=0;outlineConnect=0;rounded=1;shadow=0;comic=0;labelBackgroundColor=none;strokeWidth=1;fontFamily=Verdana;fontSize=12;align=center;fillColor=#ffcc99;strokeColor=#36393d;" parent="wwjqNw4YfcpreguJsvVE-1" vertex="1">
          
          <mxGeometry x="320" y="110" width="100" height="1130" as="geometry" />
          
        </mxCell>
        
        <mxCell id="fx-iNKi_1GMHtGc6FXnT-6" value="" style="html=1;points=[];perimeter=orthogonalPerimeter;fillColor=#f0a30a;strokeColor=#BD7000;fontColor=#ffffff;" parent="wwjqNw4YfcpreguJsvVE-7" vertex="1">
          
          <mxGeometry x="40" y="510" width="20" height="260" as="geometry" />
          
        </mxCell>
        
        <mxCell id="wwjqNw4YfcpreguJsvVE-8" value=":LOGGED" style="shape=umlLifeline;perimeter=lifelinePerimeter;whiteSpace=wrap;html=1;container=1;collapsible=0;recursiveResize=0;outlineConnect=0;rounded=1;shadow=0;comic=0;labelBackgroundColor=none;strokeWidth=1;fontFamily=Verdana;fontSize=12;align=center;fillColor=#ffcc99;strokeColor=#36393d;" parent="wwjqNw4YfcpreguJsvVE-1" vertex="1">
          
          <mxGeometry x="140" y="110" width="100" height="1130" as="geometry" />
          
        </mxCell>
        
        <mxCell id="wwjqNw4YfcpreguJsvVE-9" value="" style="html=1;points=[];perimeter=orthogonalPerimeter;fillColor=#f0a30a;strokeColor=#BD7000;fontColor=#ffffff;" parent="wwjqNw4YfcpreguJsvVE-8" vertex="1">
          
          <mxGeometry x="40" y="71" width="20" height="289" as="geometry" />
          
        </mxCell>
        
        <mxCell id="fx-iNKi_1GMHtGc6FXnT-5" value="" style="html=1;points=[];perimeter=orthogonalPerimeter;fillColor=#f0a30a;strokeColor=#BD7000;fontColor=#ffffff;" parent="wwjqNw4YfcpreguJsvVE-8" vertex="1">
          
          <mxGeometry x="40" y="460" width="20" height="630" as="geometry" />
          
        </mxCell>
        
        <mxCell id="wwjqNw4YfcpreguJsvVE-13" value="&lt;div&gt;FINAL&lt;/div&gt;&lt;div&gt;VALIDATION&lt;br&gt;&lt;/div&gt;" style="shape=umlLifeline;perimeter=lifelinePerimeter;whiteSpace=wrap;html=1;container=1;collapsible=0;recursiveResize=0;outlineConnect=0;rounded=1;shadow=0;comic=0;labelBackgroundColor=none;strokeWidth=1;fontFamily=Verdana;fontSize=12;align=center;fillColor=#ffcc99;strokeColor=#36393d;" parent="wwjqNw4YfcpreguJsvVE-1" vertex="1">
          
          <mxGeometry x="480" y="110" width="100" height="1130" as="geometry" />
          
        </mxCell>
        
        <mxCell id="fx-iNKi_1GMHtGc6FXnT-12" value="" style="html=1;points=[];perimeter=orthogonalPerimeter;fillColor=#f0a30a;strokeColor=#BD7000;fontColor=#ffffff;" parent="wwjqNw4YfcpreguJsvVE-13" vertex="1">
          
          <mxGeometry x="40" y="660" width="20" height="80" as="geometry" />
          
        </mxCell>
        
        <mxCell id="wwjqNw4YfcpreguJsvVE-14" value="&lt;div&gt;EBAO/&lt;/div&gt;&lt;div&gt;G-L/H&lt;/div&gt;" style="shape=umlLifeline;perimeter=lifelinePerimeter;whiteSpace=wrap;html=1;container=1;collapsible=0;recursiveResize=0;outlineConnect=0;rounded=1;shadow=0;comic=0;labelBackgroundColor=none;strokeWidth=1;fontFamily=Verdana;fontSize=12;align=center;fillColor=#ffcc99;strokeColor=#36393d;" parent="wwjqNw4YfcpreguJsvVE-1" vertex="1">
          
          <mxGeometry x="630" y="110" width="100" height="1130" as="geometry" />
          
        </mxCell>
        
        <mxCell id="fx-iNKi_1GMHtGc6FXnT-19" value="" style="html=1;points=[];perimeter=orthogonalPerimeter;fillColor=#f0a30a;strokeColor=#BD7000;fontColor=#ffffff;" parent="wwjqNw4YfcpreguJsvVE-14" vertex="1">
          
          <mxGeometry x="40" y="850" width="20" height="90" as="geometry" />
          
        </mxCell>
        
        <mxCell id="wwjqNw4YfcpreguJsvVE-15" value="NOTIFICATION" style="shape=umlLifeline;perimeter=lifelinePerimeter;whiteSpace=wrap;html=1;container=1;collapsible=0;recursiveResize=0;outlineConnect=0;rounded=1;shadow=0;comic=0;labelBackgroundColor=none;strokeWidth=1;fontFamily=Verdana;fontSize=12;align=center;fillColor=#ffcc99;strokeColor=#36393d;" parent="wwjqNw4YfcpreguJsvVE-1" vertex="1">
          
          <mxGeometry x="800" y="110" width="100" height="1130" as="geometry" />
          
        </mxCell>
        
        <mxCell id="wwjqNw4YfcpreguJsvVE-17" value="" style="html=1;points=[];perimeter=orthogonalPerimeter;rounded=0;shadow=0;comic=0;labelBackgroundColor=none;strokeWidth=1;fontFamily=Verdana;fontSize=12;align=center;fillColor=#ffcc99;strokeColor=#36393d;" parent="wwjqNw4YfcpreguJsvVE-15" vertex="1">
          
          <mxGeometry x="42.5" y="241" width="15" height="70" as="geometry" />
          
        </mxCell>
        
        <mxCell id="fx-iNKi_1GMHtGc6FXnT-23" value="" style="html=1;points=[];perimeter=orthogonalPerimeter;fillColor=#f0a30a;strokeColor=#BD7000;fontColor=#ffffff;" parent="wwjqNw4YfcpreguJsvVE-15" vertex="1">
          
          <mxGeometry x="37.5" y="969" width="20" height="90" as="geometry" />
          
        </mxCell>
        
        <mxCell id="wwjqNw4YfcpreguJsvVE-20" value="&lt;div&gt;AGENT/DM/RH&lt;/div&gt;" style="shape=umlLifeline;participant=umlActor;perimeter=lifelinePerimeter;whiteSpace=wrap;html=1;container=1;collapsible=0;recursiveResize=0;verticalAlign=top;spacingTop=36;labelBackgroundColor=#ffffff;outlineConnect=0;fillColor=#ffcd28;strokeColor=#d79b00;gradientColor=#ffa500;" parent="wwjqNw4YfcpreguJsvVE-1" vertex="1">
          
          <mxGeometry x="17" y="151" width="30" height="359" as="geometry" />
          
        </mxCell>
        
        <mxCell id="wwjqNw4YfcpreguJsvVE-21" value="&lt;div&gt;Login UserId, &lt;br&gt;&lt;/div&gt;&lt;div&gt;Password&lt;/div&gt;" style="html=1;verticalAlign=bottom;startArrow=oval;endArrow=block;startSize=8;strokeColor=#000000;" parent="wwjqNw4YfcpreguJsvVE-1" source="wwjqNw4YfcpreguJsvVE-20" target="wwjqNw4YfcpreguJsvVE-9" edge="1">
          
          <mxGeometry relative="1" as="geometry">
            
            <mxPoint x="415" y="171" as="sourcePoint" />
            
            <Array as="points">
              
              <mxPoint x="110" y="191" />
              
            </Array>
            
          </mxGeometry>
          
        </mxCell>
        
        <mxCell id="wwjqNw4YfcpreguJsvVE-22" value="&lt;div&gt;Open&lt;/div&gt;&lt;div&gt;Submitted SPAJ&lt;br&gt;&lt;/div&gt;" style="edgeStyle=none;rounded=0;orthogonalLoop=1;jettySize=auto;html=1;startArrow=none;startFill=0;endArrow=classic;endFill=1;strokeColor=#000000;" parent="wwjqNw4YfcpreguJsvVE-1" source="wwjqNw4YfcpreguJsvVE-9" target="wwjqNw4YfcpreguJsvVE-23" edge="1">
          
          <mxGeometry relative="1" as="geometry">
            
            <mxPoint x="160" y="221" as="sourcePoint" />
            
            <mxPoint x="304.5" y="221" as="targetPoint" />
            
            <Array as="points">
              
              <mxPoint x="230" y="221" />
              
            </Array>
            
          </mxGeometry>
          
        </mxCell>
        
        <mxCell id="wwjqNw4YfcpreguJsvVE-23" value="" style="html=1;points=[];perimeter=orthogonalPerimeter;fillColor=#f0a30a;strokeColor=#BD7000;fontColor=#ffffff;" parent="wwjqNw4YfcpreguJsvVE-1" vertex="1">
          
          <mxGeometry x="360" y="220" width="20" height="220" as="geometry" />
          
        </mxCell>
        
        <mxCell id="wwjqNw4YfcpreguJsvVE-24" value="" style="html=1;points=[];perimeter=orthogonalPerimeter;fillColor=#ffcc99;strokeColor=#36393d;" parent="wwjqNw4YfcpreguJsvVE-1" vertex="1">
          
          <mxGeometry x="370" y="290" width="20" height="40" as="geometry" />
          
        </mxCell>
        
        <mxCell id="wwjqNw4YfcpreguJsvVE-25" value="Validate SPAJ" style="edgeStyle=orthogonalEdgeStyle;html=1;align=left;spacingLeft=2;endArrow=block;rounded=0;entryX=1;entryY=0;strokeColor=#000000;exitX=1.033;exitY=0.185;exitDx=0;exitDy=0;exitPerimeter=0;" parent="wwjqNw4YfcpreguJsvVE-1" target="wwjqNw4YfcpreguJsvVE-24" edge="1">
          
          <mxGeometry relative="1" as="geometry">
            
            <mxPoint x="380.65999999999985" y="237.75" as="sourcePoint" />
            
            <Array as="points">
              
              <mxPoint x="430" y="238" />
              
              <mxPoint x="430" y="290" />
              
            </Array>
            
          </mxGeometry>
          
        </mxCell>
        
        <mxCell id="wwjqNw4YfcpreguJsvVE-26" value="Return" style="edgeStyle=orthogonalEdgeStyle;rounded=0;orthogonalLoop=1;jettySize=auto;html=1;dashed=1;startArrow=none;startFill=0;endArrow=classic;endFill=1;strokeColor=#000000;" parent="wwjqNw4YfcpreguJsvVE-1" edge="1">
          
          <mxGeometry relative="1" as="geometry">
            
            <mxPoint x="360" y="420" as="sourcePoint" />
            
            <mxPoint x="200" y="420" as="targetPoint" />
            
            <Array as="points">
              
              <mxPoint x="200" y="420" />
              
            </Array>
            
          </mxGeometry>
          
        </mxCell>
        
        <mxCell id="wwjqNw4YfcpreguJsvVE-27" value="Notify Update to Agent/BDM/RH" style="edgeStyle=none;rounded=0;orthogonalLoop=1;jettySize=auto;html=1;startArrow=none;startFill=0;endArrow=classic;endFill=1;strokeColor=#000000;" parent="wwjqNw4YfcpreguJsvVE-1" edge="1">
          
          <mxGeometry relative="1" as="geometry">
            
            <mxPoint x="380" y="350" as="sourcePoint" />
            
            <mxPoint x="839.4999999999995" y="350" as="targetPoint" />
            
            <Array as="points">
              
              <mxPoint x="450" y="350" />
              
            </Array>
            
          </mxGeometry>
          
        </mxCell>
        
        <mxCell id="XQ7NofDED7AON--SbGOU-1" value="Return" style="edgeStyle=orthogonalEdgeStyle;rounded=0;orthogonalLoop=1;jettySize=auto;html=1;dashed=1;startArrow=none;startFill=0;endArrow=classic;endFill=1;strokeColor=#000000;exitX=-0.03;exitY=0.912;exitDx=0;exitDy=0;exitPerimeter=0;" parent="wwjqNw4YfcpreguJsvVE-1" source="wwjqNw4YfcpreguJsvVE-9" target="wwjqNw4YfcpreguJsvVE-20" edge="1">
          
          <mxGeometry relative="1" as="geometry">
            
            <mxPoint x="180" y="430" as="sourcePoint" />
            
            <mxPoint x="210" y="395" as="targetPoint" />
            
            <Array as="points">
              
              <mxPoint x="100" y="445" />
              
              <mxPoint x="100" y="445" />
              
            </Array>
            
          </mxGeometry>
          
        </mxCell>
        
        <mxCell id="fx-iNKi_1GMHtGc6FXnT-0" value="Return" style="edgeStyle=orthogonalEdgeStyle;rounded=0;orthogonalLoop=1;jettySize=auto;html=1;dashed=1;startArrow=none;startFill=0;endArrow=classic;endFill=1;strokeColor=#000000;exitX=-0.03;exitY=0.912;exitDx=0;exitDy=0;exitPerimeter=0;" parent="wwjqNw4YfcpreguJsvVE-1" edge="1">
          
          <mxGeometry relative="1" as="geometry">
            
            <mxPoint x="838.57" y="399.998" as="sourcePoint" />
            
            <mxPoint x="380" y="400" as="targetPoint" />
            
            <Array as="points">
              
              <mxPoint x="500" y="400" />
              
              <mxPoint x="500" y="400" />
              
            </Array>
            
          </mxGeometry>
          
        </mxCell>
        
        <mxCell id="fx-iNKi_1GMHtGc6FXnT-3" value="SO ADMIN" style="shape=umlLifeline;participant=umlActor;perimeter=lifelinePerimeter;whiteSpace=wrap;html=1;container=1;collapsible=0;recursiveResize=0;verticalAlign=top;spacingTop=36;labelBackgroundColor=#ffffff;outlineConnect=0;fillColor=#ffcd28;strokeColor=#d79b00;gradientColor=#ffa500;" parent="wwjqNw4YfcpreguJsvVE-1" vertex="1">
          
          <mxGeometry x="17" y="550" width="30" height="870" as="geometry" />
          
        </mxCell>
        
        <mxCell id="fx-iNKi_1GMHtGc6FXnT-4" value="&lt;div&gt;Login UserId, &lt;br&gt;&lt;/div&gt;&lt;div&gt;Password&lt;/div&gt;" style="html=1;verticalAlign=bottom;startArrow=oval;endArrow=block;startSize=8;strokeColor=#000000;" parent="wwjqNw4YfcpreguJsvVE-1" edge="1">
          
          <mxGeometry relative="1" as="geometry">
            
            <mxPoint x="40.5" y="580" as="sourcePoint" />
            
            <mxPoint x="190" y="580" as="targetPoint" />
            
            <Array as="points">
              
              <mxPoint x="120" y="580" />
              
            </Array>
            
          </mxGeometry>
          
        </mxCell>
        
        <mxCell id="fx-iNKi_1GMHtGc6FXnT-7" value="Open Validated SPAJ" style="edgeStyle=none;rounded=0;orthogonalLoop=1;jettySize=auto;html=1;startArrow=none;startFill=0;endArrow=classic;endFill=1;strokeColor=#000000;" parent="wwjqNw4YfcpreguJsvVE-1" source="fx-iNKi_1GMHtGc6FXnT-5" target="fx-iNKi_1GMHtGc6FXnT-6" edge="1">
          
          <mxGeometry relative="1" as="geometry">
            
            <Array as="points">
              
              <mxPoint x="280" y="640" />
              
            </Array>
            
          </mxGeometry>
          
        </mxCell>
        
        <mxCell id="fx-iNKi_1GMHtGc6FXnT-10" value="" style="html=1;points=[];perimeter=orthogonalPerimeter;fillColor=#ffcc99;strokeColor=#36393d;" parent="wwjqNw4YfcpreguJsvVE-1" vertex="1">
          
          <mxGeometry x="370" y="712.25" width="20" height="40" as="geometry" />
          
        </mxCell>
        
        <mxCell id="fx-iNKi_1GMHtGc6FXnT-11" value="Validate SPAJ" style="edgeStyle=orthogonalEdgeStyle;html=1;align=left;spacingLeft=2;endArrow=block;rounded=0;entryX=1;entryY=0;strokeColor=#000000;exitX=1.033;exitY=0.185;exitDx=0;exitDy=0;exitPerimeter=0;" parent="wwjqNw4YfcpreguJsvVE-1" target="fx-iNKi_1GMHtGc6FXnT-10" edge="1">
          
          <mxGeometry relative="1" as="geometry">
            
            <mxPoint x="380.65999999999985" y="660" as="sourcePoint" />
            
            <Array as="points">
              
              <mxPoint x="430" y="660.25" />
              
              <mxPoint x="430" y="712.25" />
              
            </Array>
            
          </mxGeometry>
          
        </mxCell>
        
        <mxCell id="fx-iNKi_1GMHtGc6FXnT-13" value="Final Validation" style="edgeStyle=none;rounded=0;orthogonalLoop=1;jettySize=auto;html=1;startArrow=none;startFill=0;endArrow=classic;endFill=1;strokeColor=#000000;" parent="wwjqNw4YfcpreguJsvVE-1" edge="1">
          
          <mxGeometry relative="1" as="geometry">
            
            <mxPoint x="380" y="790" as="sourcePoint" />
            
            <mxPoint x="520" y="790" as="targetPoint" />
            
            <Array as="points">
              
              <mxPoint x="460" y="790" />
              
            </Array>
            
          </mxGeometry>
          
        </mxCell>
        
        <mxCell id="fx-iNKi_1GMHtGc6FXnT-14" value="Return" style="edgeStyle=orthogonalEdgeStyle;rounded=0;orthogonalLoop=1;jettySize=auto;html=1;dashed=1;startArrow=none;startFill=0;endArrow=classic;endFill=1;strokeColor=#000000;exitX=-0.03;exitY=0.912;exitDx=0;exitDy=0;exitPerimeter=0;" parent="wwjqNw4YfcpreguJsvVE-1" edge="1">
          
          <mxGeometry relative="1" as="geometry">
            
            <mxPoint x="518.3299999999997" y="839.998" as="sourcePoint" />
            
            <mxPoint x="380" y="840" as="targetPoint" />
            
            <Array as="points">
              
              <mxPoint x="438.93" y="840.4300000000001" />
              
              <mxPoint x="438.93" y="840.4300000000001" />
              
            </Array>
            
          </mxGeometry>
          
        </mxCell>
        
        <mxCell id="fx-iNKi_1GMHtGc6FXnT-15" value="Return" style="edgeStyle=orthogonalEdgeStyle;rounded=0;orthogonalLoop=1;jettySize=auto;html=1;dashed=1;startArrow=none;startFill=0;endArrow=classic;endFill=1;strokeColor=#000000;" parent="wwjqNw4YfcpreguJsvVE-1" edge="1">
          
          <mxGeometry relative="1" as="geometry">
            
            <mxPoint x="370" y="868" as="sourcePoint" />
            
            <mxPoint x="200" y="868" as="targetPoint" />
            
            <Array as="points">
              
              <mxPoint x="360" y="870" />
              
              <mxPoint x="360" y="868" />
              
            </Array>
            
          </mxGeometry>
          
        </mxCell>
        
        <mxCell id="fx-iNKi_1GMHtGc6FXnT-17" value="Open Final Validated" style="edgeStyle=none;rounded=0;orthogonalLoop=1;jettySize=auto;html=1;startArrow=none;startFill=0;endArrow=classic;endFill=1;strokeColor=#000000;" parent="wwjqNw4YfcpreguJsvVE-1" target="fx-iNKi_1GMHtGc6FXnT-18" edge="1">
          
          <mxGeometry relative="1" as="geometry">
            
            <mxPoint x="200" y="930" as="sourcePoint" />
            
            <Array as="points">
              
              <mxPoint x="280" y="930" />
              
            </Array>
            
          </mxGeometry>
          
        </mxCell>
        
        <mxCell id="fx-iNKi_1GMHtGc6FXnT-20" value="&lt;div&gt;Manual&lt;/div&gt;&lt;div&gt;Input&lt;br&gt;&lt;/div&gt;" style="edgeStyle=none;rounded=0;orthogonalLoop=1;jettySize=auto;html=1;startArrow=none;startFill=0;endArrow=classic;endFill=1;strokeColor=#000000;" parent="wwjqNw4YfcpreguJsvVE-1" source="fx-iNKi_1GMHtGc6FXnT-18" target="fx-iNKi_1GMHtGc6FXnT-19" edge="1">
          
          <mxGeometry relative="1" as="geometry">
            
            <Array as="points">
              
              <mxPoint x="600" y="990" />
              
            </Array>
            
          </mxGeometry>
          
        </mxCell>
        
        <mxCell id="fx-iNKi_1GMHtGc6FXnT-18" value="" style="html=1;points=[];perimeter=orthogonalPerimeter;fillColor=#f0a30a;strokeColor=#BD7000;fontColor=#ffffff;" parent="wwjqNw4YfcpreguJsvVE-1" vertex="1">
          
          <mxGeometry x="520" y="909" width="20" height="281" as="geometry" />
          
        </mxCell>
        
        <mxCell id="fx-iNKi_1GMHtGc6FXnT-21" value="Return" style="edgeStyle=orthogonalEdgeStyle;rounded=0;orthogonalLoop=1;jettySize=auto;html=1;dashed=1;startArrow=none;startFill=0;endArrow=classic;endFill=1;strokeColor=#000000;exitX=-0.03;exitY=0.912;exitDx=0;exitDy=0;exitPerimeter=0;entryX=1.183;entryY=0.512;entryDx=0;entryDy=0;entryPerimeter=0;" parent="wwjqNw4YfcpreguJsvVE-1" target="fx-iNKi_1GMHtGc6FXnT-18" edge="1">
          
          <mxGeometry relative="1" as="geometry">
            
            <mxPoint x="668.5700000000002" y="1049.998" as="sourcePoint" />
            
            <mxPoint x="520.0033333333336" y="1050.0966666666668" as="targetPoint" />
            
            <Array as="points">
              
              <mxPoint x="669" y="1042" />
              
            </Array>
            
          </mxGeometry>
          
        </mxCell>
        
        <mxCell id="fx-iNKi_1GMHtGc6FXnT-22" value="Notify Updte to Agent/Dm/RH" style="edgeStyle=none;rounded=0;orthogonalLoop=1;jettySize=auto;html=1;startArrow=none;startFill=0;endArrow=classic;endFill=1;strokeColor=#000000;" parent="wwjqNw4YfcpreguJsvVE-1" edge="1">
          
          <mxGeometry relative="1" as="geometry">
            
            <mxPoint x="540" y="1090" as="sourcePoint" />
            
            <mxPoint x="840" y="1090" as="targetPoint" />
            
            <Array as="points">
              
              <mxPoint x="610" y="1090" />
              
            </Array>
            
          </mxGeometry>
          
        </mxCell>
        
        <mxCell id="fx-iNKi_1GMHtGc6FXnT-24" value="Return" style="edgeStyle=orthogonalEdgeStyle;rounded=0;orthogonalLoop=1;jettySize=auto;html=1;dashed=1;startArrow=none;startFill=0;endArrow=classic;endFill=1;strokeColor=#000000;exitX=-0.004;exitY=0.851;exitDx=0;exitDy=0;exitPerimeter=0;" parent="wwjqNw4YfcpreguJsvVE-1" source="fx-iNKi_1GMHtGc6FXnT-23" target="fx-iNKi_1GMHtGc6FXnT-18" edge="1">
          
          <mxGeometry relative="1" as="geometry">
            
            <mxPoint x="840" y="1150" as="sourcePoint" />
            
            <mxPoint x="679.9999999999999" y="1150.0200000000002" as="targetPoint" />
            
            <Array as="points">
              
              <mxPoint x="837" y="1150" />
              
            </Array>
            
          </mxGeometry>
          
        </mxCell>
        
        <mxCell id="pPnLT5J8ZT4kjRrJTe2W-0" value="Return" style="edgeStyle=orthogonalEdgeStyle;rounded=0;orthogonalLoop=1;jettySize=auto;html=1;dashed=1;startArrow=none;startFill=0;endArrow=classic;endFill=1;strokeColor=#000000;exitX=-0.004;exitY=0.851;exitDx=0;exitDy=0;exitPerimeter=0;" parent="wwjqNw4YfcpreguJsvVE-1" target="wwjqNw4YfcpreguJsvVE-8" edge="1">
          
          <mxGeometry relative="1" as="geometry">
            
            <mxPoint x="518.71" y="1175.59" as="sourcePoint" />
            
            <mxPoint x="221.29000000000002" y="1170" as="targetPoint" />
            
            <Array as="points">
              
              <mxPoint x="519" y="1170" />
              
            </Array>
            
          </mxGeometry>
          
        </mxCell>
        
      </root>
      
    </mxGraphModel>
    
  </diagram>
</mxfile>
